<svg width="32" height="32" viewBox="0 0 32 32" fill="none" xmlns="http://www.w3.org/2000/svg">
<path d="M0 9.6C0 13.1568 1.93428 16.2618 4.8083 17.9205C4.85035 16.707 5.05136 15.534 5.39117 14.4215C4.04831 13.2483 3.2 11.5232 3.2 9.6C3.2 6.06538 6.06538 3.2 9.6 3.2C11.5232 3.2 13.2483 4.04831 14.4215 5.39117C15.534 5.05136 16.707 4.85035 17.9205 4.8083C16.2618 1.93428 13.1568 0 9.6 0C4.29807 0 0 4.29807 0 9.6Z" fill="black"/>
<path d="M9.6 19.2C14.9019 19.2 19.2 14.9019 19.2 9.6C19.2 9.06229 19.1558 8.53491 19.0708 8.02129C18.849 8.00717 18.6254 8 18.4 8C17.5274 8 16.6798 8.10748 15.8699 8.30991C15.9552 8.72662 16 9.15808 16 9.6C16 13.1346 13.1346 16 9.6 16C9.15808 16 8.72662 15.9552 8.30991 15.8699C8.10748 16.6798 8 17.5274 8 18.4C8 18.6254 8.00717 18.849 8.02129 19.0708C8.53491 19.1558 9.06229 19.2 9.6 19.2Z" fill="black"/>
<path d="M28.8 18.4C28.8 24.1438 24.1438 28.8 18.4 28.8C12.8816 28.8 8.36704 24.502 8.02129 19.0708C6.86793 18.88 5.78396 18.4836 4.8083 17.9205C4.80278 18.0796 4.8 18.2395 4.8 18.4C4.8 25.9111 10.8889 32 18.4 32C25.9111 32 32 25.9111 32 18.4C32 10.8889 25.9111 4.8 18.4 4.8C18.2395 4.8 18.0796 4.80278 17.9205 4.8083C18.4836 5.78396 18.88 6.86793 19.0708 8.02129C24.502 8.36704 28.8 12.8816 28.8 18.4Z" fill="black"/>
<path d="M14.4215 5.39117C10.1099 6.70816 6.70816 10.1099 5.39117 14.4215C6.20773 15.1349 7.20716 15.6442 8.30991 15.8699C9.23749 12.1588 12.1588 9.23749 15.8699 8.30991C15.6442 7.20716 15.1349 6.20773 14.4215 5.39117Z" fill="black"/>
</svg>
